<?xml version="1.0" encoding="UTF-8"?><svg id="Layer_1" xmlns="http://www.w3.org/2000/svg" viewBox="0 0 639.95 512.11"><defs><style>.cls-1{fill:#dd2476;}</style></defs><path class="cls-1" d="M392.78,1.25c-17-4.9-34.7,5-39.6,22L225.18,471.25c-4.9,17,5,34.7,22,39.6s34.7-5,39.6-22L414.78,40.85c4.9-17-5-34.7-22-39.6h0Zm80.6,120.1c-12.5,12.5-12.5,32.8,0,45.3l89.3,89.4-89.4,89.4c-12.5,12.5-12.5,32.8,0,45.3s32.8,12.5,45.3,0l112-112c12.5-12.5,12.5-32.8,0-45.3l-112-112c-12.5-12.5-32.8-12.5-45.3,0l.1-.1Zm-306.7,0c-12.5-12.5-32.8-12.5-45.3,0L9.38,233.35c-12.5,12.5-12.5,32.8,0,45.3l112,112c12.5,12.5,32.8,12.5,45.3,0s12.5-32.8,0-45.3l-89.4-89.3,89.4-89.4c12.5-12.5,12.5-32.8,0-45.3h0Z"/></svg>